inDegrees=no
num_controls=7
num_derivatives=13
num_iterations=213
num_multipliers=7
num_parameters=0
num_slacks=7
num_states=26
objective=5.275045
objective_accelerations=0.457958
objective_balance=0.011662
objective_effort=0.387874
objective_height=4.370721
objective_ligament=0.046830
solver_duration=1782.007918
status=Solve_Succeeded
success=true
DataType=double
version=3
OpenSimVersion=4.4-2022-07-23-0e9fedc
endheader
time	/jointset/ground_pelvis/pelvis_tilt/value	/jointset/ground_pelvis/pelvis_tx/value	/jointset/ground_pelvis/pelvis_ty/value	/jointset/hip_r/hip_flexion_r/value	/jointset/hip_r/hip_adduction_r/value	/jointset/hip_r/hip_rotation_r/value	/jointset/back/lumbar_extension/value	/jointset/patellofemoral_r/patellar_flexion_r/value	/jointset/knee_r/knee_flexion_r/value	/jointset/knee_r/knee_adduction_r/value	/jointset/knee_r/knee_rotation_r/value	/jointset/ankle_r/ankle_angle_r/value	/jointset/subtalar_r/subtalar_angle_r/value	/jointset/ground_pelvis/pelvis_tilt/speed	/jointset/ground_pelvis/pelvis_tx/speed	/jointset/ground_pelvis/pelvis_ty/speed	/jointset/hip_r/hip_flexion_r/speed	/jointset/hip_r/hip_adduction_r/speed	/jointset/hip_r/hip_rotation_r/speed	/jointset/back/lumbar_extension/speed	/jointset/patellofemoral_r/patellar_flexion_r/speed	/jointset/knee_r/knee_flexion_r/speed	/jointset/knee_r/knee_adduction_r/speed	/jointset/knee_r/knee_rotation_r/speed	/jointset/ankle_r/ankle_angle_r/speed	/jointset/subtalar_r/subtalar_angle_r/speed	/forceset/tau_hip_flexion_r	/forceset/tau_hip_adduction_r	/forceset/tau_hip_rotation_r	/forceset/tau_knee_flexion_r	/forceset/tau_ankle_angle_r	/forceset/tau_subtalar_angle_r	/forceset/tau_lumbar_extension	lambda_cid13_p0	lambda_cid14_p0	lambda_cid14_p1	lambda_cid14_p2	lambda_cid14_p3	lambda_cid14_p4	lambda_cid14_p5	/jointset/ground_pelvis/pelvis_tilt/accel	/jointset/ground_pelvis/pelvis_tx/accel	/jointset/ground_pelvis/pelvis_ty/accel	/jointset/hip_r/hip_flexion_r/accel	/jointset/hip_r/hip_adduction_r/accel	/jointset/hip_r/hip_rotation_r/accel	/jointset/back/lumbar_extension/accel	/jointset/patellofemoral_r/patellar_flexion_r/accel	/jointset/knee_r/knee_flexion_r/accel	/jointset/knee_r/knee_adduction_r/accel	/jointset/knee_r/knee_rotation_r/accel	/jointset/ankle_r/ankle_angle_r/accel	/jointset/subtalar_r/subtalar_angle_r/accel	gamma_cid13_p0	gamma_cid14_p0	gamma_cid14_p1	gamma_cid14_p2	gamma_cid14_p3	gamma_cid14_p4	gamma_cid14_p5
1.5	-0.03457912075127412	0.05271528830578213	0.8429593429485659	0.6770871827093794	-0.2186471923347709	-0.1511991506951698	-0.6095723891078781	0.8499559734681882	0.8499559734681971	-0.04561134362738146	0.174530398992637	0.2984115906090887	0.1472733811425081	0.3365579587413472	0.1932949780077808	0.4020204000246543	-1.658532549210277	0.009299600221535803	-0.1415624018440427	0.8036444702679996	-1.733613761658053	-1.733613761657913	0.4535645908803833	-8.01922873538754e-06	-0.5202882716524038	-0.1985270630437961	-0.127373947708591	-7.805834019704912e-05	0.017837918455356	-0.2947136872550192	-0.0003467191676537294	-0.0008386104316098068	0.1917212520876678	-14.03576950035979	-42.42548033529267	-5.997467135203818	-0.6723828346166527	-0.1184819210322876	-634.6532762985846	66.39165853408863	0.003236174696748107	0.4083770542953186	-0.4276820121673505	-0.7580056853391322	-0.2198552015678099	-0.6206286949905385	1.504820957488719	-1.140006170823624	-1.140006170823631	0.368637854494986	-0.01034257352174402	-0.5281532626264149	-0.3430601943190094	8.106052537358248e-08	7.251031695038686e-08	-4.366531133519239e-07	9.75071322623524e-07	5.330720552914454e-09	1.744499679032434e-07	-5.028564053829727e-07
1.51	-0.03121372143771571	0.05466841082235429	0.8469573448844356	0.6604658939153781	-0.218565794396894	-0.1526455295300028	-0.6014620120019482	0.832565187840919	0.8325651878409063	-0.04105628754876484	0.1745304227517302	0.293182869070857	0.1452703929840998	0.3364730576318796	0.1973023598731105	0.3974966044751542	-1.665498760290228	0.006974415420771249	-0.1477143112071832	0.8183138750729056	-1.744296870487567	-1.744296870487552	0.4574108927594728	7.24498354635089e-06	-0.5253774418072918	-0.2020331537880238	-0.1212607612746134	-0.001265389362158122	0.01765857741667526	-0.2913449529255858	0.001675460322498336	-0.001771214962164094	0.1859327716611535	-14.91274864095371	-41.59042180486684	-6.150203237300023	-0.769202836405702	-0.2303150092877187	-630.8726270080386	65.94713330418872	-0.02167502435956192	0.3928503657513269	-0.4772006444394734	-0.6319539255378792	-0.2396062721474589	-0.6124607525237626	1.430438865295447	-0.9955067427583042	-0.9955067427769798	0.3871963436918707	0.00677047655705841	-0.4874869746483735	-0.3487744518616387	8.53105550954604e-08	6.474938312186585e-08	-5.731752398335462e-07	8.751088818936105e-07	2.302536508870418e-08	1.750869594225649e-07	-5.799043837981938e-07
1.52	-0.0278506354893676	0.05666079348019967	0.8509076144011909	0.6437817379893336	-0.2185077995375882	-0.1541534251975763	-0.5932084531233083	0.8150749624246036	0.8150749624245718	-0.03646385445354133	0.1745304610645351	0.2879056182145308	0.1432334657307719	0.3360952856987618	0.2011470062624266	0.3924739162017487	-1.671105975618774	0.004618984507337645	-0.1538657683922419	0.8322808248099649	-1.753501719466803	-1.753501719466912	0.4610399942015984	-5.108486014732675e-06	-0.5299941352713144	-0.2053148820277301	-0.1151475748406542	-0.002452720384115299	0.0174792363779725	-0.2879762185961572	0.003697639812652544	-0.00270381949271129	0.1801442912346223	-15.78406420983044	-40.75751496631525	-6.301656976633626	-0.868122579928963	-0.3510118606858403	-627.1279771130378	65.55012688470008	-0.05533799003322993	0.375829959092583	-0.5274605569484491	-0.4862065350581375	-0.2259044241016206	-0.6205382593741781	1.364329943919394	-0.8443542007681614	-0.8443542007681616	0.32519776710222	-0.0158661098903096	-0.4336579244533565	-0.2981876934147254	8.957090486941036e-08	5.751772189821299e-08	-7.067090764765906e-07	7.687259748144136e-07	4.021667204227801e-08	1.747581445304892e-07	-6.466093300950317e-07
1.53	-0.02449276687383497	0.05869075809620543	0.8548052236971035	0.6270483128981481	-0.2184734141983233	-0.1557233458533944	-0.5848188998895546	0.7975000711610369	0.7975000711610282	-0.03183671190749163	0.1745305150925377	0.2825846029747079	0.1411650005152822	0.3354292528977191	0.2048133215595939	0.3869698309565435	-1.67534485800343	0.002256165542289829	-0.1601146694352065	0.8454990735057968	-1.761219312523769	-1.76121931252382	0.4643498482483297	1.05605008833567e-05	-0.5341260419056638	-0.2083366308854224	-0.108988823481865	-0.003702862607121546	0.01731349408306696	-0.2847525897336378	0.005777028081028025	-0.003721057450140156	0.1743207772065546	-16.64799713657595	-39.92666486195033	-6.497742370444243	-0.9513424422788578	-0.4383591270609887	-623.5637640332806	65.11769654353317	-0.07961020451667604	0.3571561661781125	-0.5735647763860395	-0.3575962838173739	-0.2417366784178882	-0.6263703056280571	1.280960067247535	-0.6968979754206356	-0.696897975412033	0.3279685483618717	0.009570483248670398	-0.3904939962633742	-0.2980109147948519	9.384221969868687e-08	5.084841281723251e-08	-8.370678551661463e-07	6.555213222391034e-07	5.687318281474746e-08	1.73403160326304e-07	-7.023248047660875e-07
1.54	-0.02114303344218503	0.06075641063541276	0.8586454556869483	0.6102795255443846	-0.2184627102578494	-0.1573556163754188	-0.5763010866218765	0.7798557167434405	0.7798557167434716	-0.02717765295599734	0.174530583226463	0.2772247612758746	0.1390675493246461	0.3344682489215938	0.2082845909027412	0.3809984549881777	-1.678178428134011	-0.0001172952512157214	-0.1663357416329908	0.8579328315949242	-1.767394350271132	-1.767394350271126	0.4674232752911928	-2.287301466840538e-06	-0.5377594270735186	-0.2111120770570491	-0.1028300721231064	-0.004953004830140435	0.01714775178822496	-0.2815289608711161	0.007856416349401273	-0.004738295407590314	0.1684972631784614	-17.50315041901098	-39.09728965117074	-6.692964098302393	-1.035981620314049	-0.5336687878995118	-620.0266983237998	64.72516443963505	-0.1143322250496581	0.3368207682885887	-0.62091870158058	-0.2051440842431339	-0.2280327897931745	-0.6149724903381016	1.207431822578568	-0.5358431388479594	-0.5358431388479572	0.2779123663285823	-0.02156946773997623	-0.3339536311544921	-0.2489271562015981	9.87431167415586e-08	4.480852166709164e-08	-9.7073827647147e-07	5.373699171051717e-07	7.363190536972931e-08	1.71113262512655e-07	-7.513358807488046e-07
